<svg width="18" height="18" viewBox="0 0 18 18" fill="none" xmlns="http://www.w3.org/2000/svg">
<path d="M17.8157 8.53695L13.6531 4.12693C13.3973 3.85559 12.9703 3.84321 12.6989 4.09926C12.428 4.35509 12.4154 4.78235 12.6715 5.05347L16.3968 9L12.6715 12.947C12.4154 13.2181 12.428 13.6452 12.6989 13.9012C12.8294 14.0243 12.9961 14.0852 13.1622 14.0852C13.3416 14.0852 13.5206 14.0142 13.6532 13.8739L17.8157 9.46371C18.0611 9.20341 18.0612 8.79704 17.8157 8.53695Z" fill="#54C9EB"/>
<path d="M5.32851 12.9468L1.6034 9.00005L5.32851 5.05332C5.58434 4.78219 5.57196 4.3549 5.30084 4.0991C5.02992 3.84327 4.60242 3.85564 4.34662 4.12677L0.184097 8.53679C-0.0613656 8.79688 -0.0613656 9.20347 0.184097 9.46359L4.34683 13.8738C4.47958 14.0145 4.65846 14.0853 4.83779 14.0853C5.00384 14.0853 5.17058 14.0241 5.30084 13.901C5.57221 13.6452 5.58434 13.2179 5.32851 12.9468Z" fill="#54C9EB"/>
<path d="M10.0919 1.85268C9.72352 1.79689 9.37881 2.04977 9.32256 2.4181L7.34254 15.3782C7.28629 15.7467 7.53942 16.0912 7.90796 16.1475C7.94263 16.1526 7.9768 16.1551 8.0108 16.1551C8.33863 16.1551 8.62618 15.916 8.67726 15.5821L10.6573 2.62198C10.7135 2.2534 10.4604 1.90893 10.0919 1.85268Z" fill="#54C9EB"/>
</svg>
