<svg width="18" height="18" viewBox="0 0 18 18" fill="none" xmlns="http://www.w3.org/2000/svg">
<path d="M9 0C4.03763 0 0 4.03763 0 9C0 13.9624 4.03763 18 9 18C13.9624 18 18 13.9624 18 9C18 4.03763 13.9624 0 9 0ZM12.375 5.625C12.9949 5.625 13.5 6.13013 13.5 6.75C13.5 7.36987 12.9949 7.875 12.375 7.875C11.7551 7.875 11.25 7.36987 11.25 6.75C11.25 6.13013 11.7551 5.625 12.375 5.625ZM5.625 5.625C6.24487 5.625 6.75 6.13013 6.75 6.75C6.75 7.36987 6.24487 7.875 5.625 7.875C5.00513 7.875 4.5 7.36987 4.5 6.75C4.5 6.13013 5.00513 5.625 5.625 5.625ZM9 15.75C5.99062 15.75 3.321 13.7306 2.50763 10.8405C2.45925 10.6695 2.49413 10.4884 2.601 10.3477C2.70675 10.2071 2.87213 10.125 3.04875 10.125H14.9513C15.1267 10.125 15.2933 10.2071 15.399 10.3477C15.5047 10.4884 15.5396 10.6695 15.4924 10.8405C14.679 13.7306 12.0094 15.75 9 15.75Z" fill="#54C9EB"/>
</svg>
