<svg id="Layer_1" enable-background="new 0 0 512.009 512.009" height="512" viewBox="0 0 512.009 512.009" width="512" xmlns="http://www.w3.org/2000/svg"><g><path d="m80.338 293.923v-5.781c0-21.038 10.342-39.695 26.199-51.189-24.293-30.277-2.147-76.465 37.002-76.277 31.898-.451 55.424 32.721 44.509 62.613 6.875-11.422 16.552-20.965 28.066-27.7-26.752-32.79-2.797-83.311 39.892-83.112 42.686-.2 66.646 50.33 39.891 83.112 11.514 6.736 21.191 16.279 28.066 27.7-10.91-29.896 12.605-63.063 44.51-62.613 39.145-.19 61.297 46.009 37.001 76.277 15.857 11.494 26.199 30.151 26.199 51.189v5.781c12.171 4.317 21.946 13.73 26.754 25.66 70.64-145.667-39.654-321.166-202.424-319.572-162.747-1.603-273.081 173.936-202.419 319.572 4.808-11.929 14.583-21.343 26.754-25.66z"/><path d="m160.671 207.809c0-9.447-7.686-17.133-17.133-17.133-22.73.941-22.723 33.329 0 34.267 9.447 0 17.133-7.686 17.133-17.134z"/><path d="m110.338 288.143v3.2h66.4v-3.2c-1.829-44.055-64.587-44.022-66.4 0z"/><path d="m277.155 163.626c0-11.662-9.488-21.15-21.15-21.15-28.058 1.162-28.05 41.142 0 42.3 11.662 0 21.15-9.488 21.15-21.15z"/><path d="m206.738 264.043v27.3h98.533v-27.3c-2.714-65.375-95.843-65.325-98.533 0z"/><path d="m385.605 207.809c0-9.447-7.686-17.133-17.133-17.133-22.73.941-22.723 33.329 0 34.267 9.447 0 17.133-7.686 17.133-17.134z"/><path d="m335.271 288.143v3.2h66.4v-3.2c-1.829-44.056-64.587-44.021-66.4 0z"/><path d="m80.338 336.343v96.4c0 8.284 6.716 15 15 15h321.333c8.284 0 15-6.716 15-15v-96.4c0-8.284-6.716-15-15-15h-321.333c-8.284 0-15 6.716-15 15z"/><path d="m496.749 448.809 14.486-43.456c1.524-4.574.757-9.603-2.062-13.514-2.819-3.912-7.347-6.229-12.168-6.229h-35.333v47.133c0 24.813-20.187 45-45 45h-63.2v19.267c0 8.284 6.716 15 15 15h128.533c4.822 0 9.35-2.318 12.168-6.229 2.819-3.912 3.586-8.94 2.062-13.514z"/><path d="m50.338 432.743v-47.133h-35.333c-4.822 0-9.35 2.318-12.168 6.229-2.819 3.912-3.586 8.94-2.062 13.514l14.486 43.456-14.487 43.457c-1.524 4.574-.757 9.603 2.062 13.514 2.819 3.912 7.347 6.229 12.168 6.229h128.533c8.284 0 15-6.716 15-15v-19.267h-63.2c-24.812.001-44.999-20.186-44.999-44.999z"/></g></svg>