<svg width="18" height="18" viewBox="0 0 18 18" fill="none" xmlns="http://www.w3.org/2000/svg">
<path d="M5.625 18C2.52301 18 0 15.477 0 12.375V4.5C0 4.08527 0.336044 3.75005 0.749954 3.75005C1.164 3.75005 1.50005 4.08527 1.50005 4.5V12.375C1.50005 14.649 3.35028 16.5 5.625 16.5C7.89972 16.5 9.74995 14.649 9.74995 12.375V4.12495C9.74995 2.67751 8.57249 1.50005 7.12505 1.50005C5.67746 1.50005 4.5 2.67751 4.5 4.12495V11.625C4.5 12.2452 5.00468 12.75 5.625 12.75C6.24532 12.75 6.75 12.2452 6.75 11.625V4.5C6.75 4.08527 7.08604 3.75005 7.49995 3.75005C7.914 3.75005 8.25005 4.08527 8.25005 4.5V11.625C8.25005 13.0725 7.07245 14.25 5.625 14.25C4.17755 14.25 2.99995 13.0725 2.99995 11.625V4.12495C2.99995 1.85106 4.85019 0 7.12505 0C9.39977 0 11.25 1.85106 11.25 4.12495V12.375C11.25 15.477 8.72699 18 5.625 18Z" fill="#54C9EB"/>
</svg>
