<svg id="color" enable-background="new 0 0 24 24" height="512" viewBox="0 0 24 24" width="512" xmlns="http://www.w3.org/2000/svg"><path d="m13.25 0h-10.5c-1.52 0-2.75 1.23-2.75 2.75v15.5c0 1.52 1.23 2.75 2.75 2.75h7.56c-.52-1.06-.81-2.25-.81-3.5 0-.87.14-1.72.41-2.5.17-.53.39-1.03.67-1.5.6-1.04 1.43-1.93 2.42-2.6.89-.61 1.9-1.05 3-1.26v-6.89c0-1.52-1.23-2.75-2.75-2.75z" fill="#eceff1"/><path d="m8 0h-5.25c-1.52 0-2.75 1.23-2.75 2.75v15.5c0 1.52 1.23 2.75 2.75 2.75h5.25z" fill="#cdd0d2"/><path d="m13 5.75v5.15c-.99.67-1.82 1.56-2.42 2.6-.28.47-.5.97-.67 1.5h-.16c-.41 0-.75-.34-.75-.75v-8.5c0-.41.34-.75.75-.75h2.5c.41 0 .75.34.75.75z" fill="#2196f3"/><path d="m6.25 9h-2.5c-.414 0-.75.336-.75.75v4.5c0 .414.336.75.75.75h2.5c.414 0 .75-.336.75-.75v-4.5c0-.414-.336-.75-.75-.75z" fill="#64b5f6"/><path d="m17.5 24c-3.584 0-6.5-2.916-6.5-6.5s2.916-6.5 6.5-6.5 6.5 2.916 6.5 6.5-2.916 6.5-6.5 6.5z" fill="#2196f3"/><path d="m17.5 20c-.414 0-.75-.336-.75-.75v-.241c0-.968.484-1.894 1.327-2.541.265-.203.423-.534.423-.884 0-.598-.449-1.083-1-1.083s-1 .486-1 1.083c0 .414-.336.75-.75.75s-.75-.336-.75-.75c0-1.425 1.122-2.584 2.5-2.584s2.5 1.159 2.5 2.584c0 .813-.377 1.589-1.009 2.074-.277.212-.741.67-.741 1.352v.241c0 .413-.336.749-.75.749z" fill="#fff"/><path d="m17.5 22c-.2 0-.39-.08-.53-.22s-.22-.33-.22-.53.08-.39.22-.53c.21-.21.54-.28.82-.16l.24.16c.14.14.22.33.22.53s-.08.39-.22.53l-.24.16c-.1.04-.19.06-.29.06z" fill="#fff"/><path d="m17.5 11c-3.584 0-6.5 2.916-6.5 6.5s2.916 6.5 6.5 6.5v-2c-.2 0-.39-.08-.53-.22s-.22-.33-.22-.53.08-.39.22-.53.334-.218.53-.218v-.502c-.414 0-.75-.336-.75-.75v-.241c0-.719.267-1.415.75-1.991v-2.518c-.551 0-1 .486-1 1.083 0 .414-.336.75-.75.75s-.75-.336-.75-.75c0-1.424 1.122-2.583 2.5-2.583z" fill="#1d83d4"/><path d="m17.5 17.019c-.483.576-.75 1.272-.75 1.991v.241c0 .414.336.75.75.75zm0-4.019c-1.378 0-2.5 1.159-2.5 2.584 0 .414.336.75.75.75s.75-.336.75-.75c0-.598.449-1.083 1-1.083z" fill="#dedede"/><path d="m17.5 20.501c-.197.001-.39.078-.53.218s-.22.33-.22.53.08.39.22.53c.14.141.33.221.53.221z" fill="#dedede"/><path d="m5 9h-1.25c-.414 0-.75.336-.75.75v4.5c0 .414.336.75.75.75h1.25z" fill="#579ed6"/><path d="m11 5h-1.25c-.41 0-.75.34-.75.75v8.5c0 .41.34.75.75.75h.16c.17-.53.39-1.03.67-1.5.13-.224.27-.442.42-.652z" fill="#1d83d4"/><path d="m10.58 13.5c-.28.47-.5.97-.67 1.5h-7.16c-.41 0-.75-.34-.75-.75s.34-.75.75-.75z" fill="#607d8b"/><path d="m10.194 14.25h-8.194c0 .41.34.75.75.75h7.16c.083-.257.177-.507.284-.75z" fill="#546d79"/></svg>