<svg id="Capa_1" enable-background="new 0 0 502 502" height="512" viewBox="0 0 502 502" width="512" xmlns="http://www.w3.org/2000/svg" xmlns:xlink="http://www.w3.org/1999/xlink"><linearGradient id="SVGID_1_" gradientUnits="userSpaceOnUse" x1="241.741" x2="241.741" y1="510.272" y2="169.927"><stop offset="0" stop-color="#bfdbdb"/><stop offset="1" stop-color="#f3dbdb"/></linearGradient><linearGradient id="SVGID_2_" gradientTransform="matrix(.707 .707 -.707 .707 230.271 -50.106)" gradientUnits="userSpaceOnUse" x1="31.662" x2="31.662" y1="275.773" y2="160.345"><stop offset="0" stop-color="#64cd89"/><stop offset=".2218" stop-color="#66cf8e"/><stop offset=".5016" stop-color="#6dd39e"/><stop offset=".8113" stop-color="#77dbb8"/><stop offset="1" stop-color="#7fe1cb"/></linearGradient><linearGradient id="SVGID_3_" gradientUnits="userSpaceOnUse" x1="298.722" x2="298.722" y1="219.282" y2="87.452"><stop offset="0" stop-color="#8b71c7"/><stop offset="1" stop-color="#a891d9"/></linearGradient><linearGradient id="lg1"><stop offset="0" stop-color="#ec6476"/><stop offset="1" stop-color="#ec909c"/></linearGradient><linearGradient id="SVGID_4_" gradientUnits="userSpaceOnUse" x1="241.741" x2="241.741" xlink:href="#lg1" y1="354.685" y2="227.354"/><linearGradient id="SVGID_5_" gradientUnits="userSpaceOnUse" x1="429.385" x2="429.385" y1="292.621" y2="150.254"><stop offset="0" stop-color="#f4c128"/><stop offset="1" stop-color="#f9dd89"/></linearGradient><linearGradient id="SVGID_6_" gradientUnits="userSpaceOnUse" x1="273.518" x2="273.518" xlink:href="#lg1" y1="445.541" y2="387.424"/><g><path d="m400.845 471.595h-318.208c-34.664 0-62.765-28.101-62.765-62.765v-197.156c0-34.664 28.101-62.766 62.765-62.766h318.207c34.664 0 62.765 28.101 62.765 62.766v197.156c.001 34.665-28.1 62.765-62.764 62.765z" fill="url(#SVGID_1_)"/><path d="m414.192 448.757c-3.822 0-7.471-2.203-9.134-5.917-2.256-5.041.002-10.956 5.043-13.213 6.492-2.906 11.322-8.755 12.922-15.646 1.248-5.38 6.623-8.729 12.002-7.48 5.38 1.249 8.728 6.622 7.48 12.002-3.006 12.95-12.066 23.933-24.234 29.379-1.326.594-2.713.875-4.079.875z" fill="#fff"/><path d="m338.464 208.166c0-9.653-7.826-17.479-17.479-17.479h-122.737c-6.838 0-13.047-2.336-17.959-6.201l-32.436 32.436c-10.692 10.692-28.027 10.692-38.719 0l-58.96-58.96c-10.147 6.151-18.417 15.09-23.735 25.762l57.945 57.945c24.361 24.361 63.857 24.361 88.218 0l16.627-16.627c7.383 1.057.949.59 131.745.602 9.654.002 17.49-7.824 17.49-17.478z" fill="#b6c6d9"/><path d="m109.133 216.922-101.114-101.114c-10.692-10.692-10.692-28.027 0-38.719l38.665-38.665c10.692-10.692 28.027-10.692 38.719 0l101.114 101.114c10.692 10.692 10.692 28.027 0 38.719l-38.665 38.665c-10.691 10.692-28.027 10.692-38.719 0z" fill="url(#SVGID_2_)"/><path d="m115.917 157.821c-2.943 0-5.886-1.123-8.132-3.368l-37.297-37.297c-4.491-4.491-4.491-11.772 0-16.264 4.491-4.491 11.772-4.491 16.264 0l37.297 37.297c4.491 4.491 4.491 11.772 0 16.264-2.246 2.246-5.189 3.368-8.132 3.368z" fill="#36b663"/><path d="m198.248 190.687c-18.092 0-31.798-16.334-28.656-34.151l11.961-67.832c2.452-13.907 14.535-24.045 28.656-24.045h188.988c18.091 0 31.797 16.334 28.656 34.151l-11.961 67.832c-2.452 13.907-14.535 24.045-28.656 24.045z" fill="url(#SVGID_3_)"/><path d="m207.511 371.688c-11.658 4.447-24.419-2.921-26.397-15.24-2.634-16.4-4.565-37.348-4.565-53.209s1.931-36.809 4.565-53.209c1.978-12.32 14.739-19.687 26.397-15.24 15.52 5.919 34.627 14.721 48.363 22.651s30.912 20.077 43.798 30.558c9.68 7.873 9.68 22.608 0 30.48-12.886 10.481-30.062 22.627-43.798 30.558-13.736 7.93-32.843 16.731-48.363 22.651z" fill="url(#SVGID_4_)"/><path d="m435.489 149.511 13.622-10.105c6.216-4.611 15.103-.93 16.238 6.726l2.487 16.778c.662 4.465 4.167 7.97 8.632 8.632l16.778 2.487c7.655 1.135 11.337 10.022 6.726 16.238l-10.105 13.622c-2.689 3.625-2.689 8.582 0 12.207l10.105 13.622c4.611 6.216.93 15.103-6.726 16.238l-16.778 2.487c-4.465.662-7.97 4.167-8.632 8.632l-2.487 16.778c-1.135 7.656-10.022 11.337-16.238 6.726l-13.622-10.105c-3.625-2.689-8.583-2.689-12.207 0l-13.622 10.105c-6.216 4.611-15.103.93-16.238-6.726l-2.487-16.778c-.662-4.465-4.167-7.97-8.632-8.632l-16.778-2.487c-7.655-1.135-11.337-10.022-6.726-16.238l10.105-13.622c2.689-3.625 2.689-8.583 0-12.207l-10.105-13.622c-4.611-6.216-.93-15.103 6.726-16.238l16.778-2.487c4.465-.662 7.97-4.167 8.632-8.632l2.487-16.778c1.135-7.656 10.022-11.337 16.238-6.726l13.622 10.105c3.624 2.689 8.582 2.689 12.207 0z" fill="url(#SVGID_5_)"/><path d="m449.231 221.492h-39.691c-6.352 0-11.5-5.149-11.5-11.5s5.148-11.5 11.5-11.5h39.691c6.352 0 11.5 5.149 11.5 11.5s-5.148 11.5-11.5 11.5z" fill="#fcb500"/><path d="m352.064 431.448h-220.646c-6.351 0-11.5-5.149-11.5-11.5s5.149-11.5 11.5-11.5h220.646c6.352 0 11.5 5.149 11.5 11.5s-5.148 11.5-11.5 11.5z" fill="#b6c6d9"/><circle cx="273.518" cy="419.948" fill="url(#SVGID_6_)" r="26.997"/><path d="m433.61 385.716c-5.522 0-10-4.477-10-10v-8.001c0-5.523 4.478-10 10-10s10 4.477 10 10v8.001c0 5.523-4.477 10-10 10z" fill="#fff"/></g></svg>